<mxfile host="app.diagrams.net" modified="2022-03-16T10:34:30.062Z" agent="5.0 (Macintosh; Intel Mac OS X 10_15_7) AppleWebKit/537.36 (KHTML, like Gecko) Chrome/99.0.4844.51 Safari/537.36" etag="flKampXjHiScwz8JYEo6" version="17.1.3" type="github">
  <diagram id="kgpKYQtTHZ0yAKxKKP6v" name="Page-1">
    <mxGraphModel dx="1391" dy="269" grid="1" gridSize="10" guides="1" tooltips="1" connect="1" arrows="1" fold="1" page="1" pageScale="1" pageWidth="850" pageHeight="1100" math="0" shadow="0">
      <root>
        <mxCell id="0" />
        <mxCell id="1" parent="0" />
        <mxCell id="3nuBFxr9cyL0pnOWT2aG-1" value="EV" style="shape=umlLifeline;perimeter=lifelinePerimeter;container=1;collapsible=0;recursiveResize=0;rounded=0;shadow=0;strokeWidth=1;" parent="1" vertex="1">
          <mxGeometry y="80" width="100" height="300" as="geometry" />
        </mxCell>
        <mxCell id="3nuBFxr9cyL0pnOWT2aG-2" value="" style="points=[];perimeter=orthogonalPerimeter;rounded=0;shadow=0;strokeWidth=1;" parent="3nuBFxr9cyL0pnOWT2aG-1" vertex="1">
          <mxGeometry x="45" y="70" width="10" height="190" as="geometry" />
        </mxCell>
        <mxCell id="3nuBFxr9cyL0pnOWT2aG-3" value="dispatch" style="verticalAlign=bottom;startArrow=oval;endArrow=block;startSize=8;shadow=0;strokeWidth=1;" parent="3nuBFxr9cyL0pnOWT2aG-1" target="3nuBFxr9cyL0pnOWT2aG-2" edge="1">
          <mxGeometry relative="1" as="geometry">
            <mxPoint x="-15" y="70" as="sourcePoint" />
          </mxGeometry>
        </mxCell>
        <mxCell id="3nuBFxr9cyL0pnOWT2aG-4" value="" style="points=[];perimeter=orthogonalPerimeter;rounded=0;shadow=0;strokeWidth=1;" parent="3nuBFxr9cyL0pnOWT2aG-1" vertex="1">
          <mxGeometry x="50" y="120" width="10" height="80" as="geometry" />
        </mxCell>
        <mxCell id="3nuBFxr9cyL0pnOWT2aG-5" value="SignalUtils" style="shape=umlLifeline;perimeter=lifelinePerimeter;container=1;collapsible=0;recursiveResize=0;rounded=0;shadow=0;strokeWidth=1;" parent="1" vertex="1">
          <mxGeometry x="350" y="80" width="100" height="460" as="geometry" />
        </mxCell>
        <mxCell id="3nuBFxr9cyL0pnOWT2aG-6" value="" style="points=[];perimeter=orthogonalPerimeter;rounded=0;shadow=0;strokeWidth=1;" parent="3nuBFxr9cyL0pnOWT2aG-5" vertex="1">
          <mxGeometry x="45" y="80" width="10" height="320" as="geometry" />
        </mxCell>
        <mxCell id="We_G-KZyb0YQPLkmT-2E-35" value="" style="endArrow=none;html=1;rounded=0;labelBackgroundColor=default;fontFamily=Verdana;fontColor=default;" parent="3nuBFxr9cyL0pnOWT2aG-5" edge="1">
          <mxGeometry width="50" height="50" relative="1" as="geometry">
            <mxPoint x="55" y="99" as="sourcePoint" />
            <mxPoint x="90" y="99" as="targetPoint" />
          </mxGeometry>
        </mxCell>
        <mxCell id="We_G-KZyb0YQPLkmT-2E-36" value="" style="endArrow=none;html=1;rounded=0;labelBackgroundColor=default;fontFamily=Verdana;fontColor=default;" parent="3nuBFxr9cyL0pnOWT2aG-5" edge="1">
          <mxGeometry width="50" height="50" relative="1" as="geometry">
            <mxPoint x="90" y="119" as="sourcePoint" />
            <mxPoint x="90" y="99" as="targetPoint" />
          </mxGeometry>
        </mxCell>
        <mxCell id="We_G-KZyb0YQPLkmT-2E-37" value="" style="endArrow=classic;html=1;rounded=0;labelBackgroundColor=default;fontFamily=Verdana;fontColor=default;" parent="3nuBFxr9cyL0pnOWT2aG-5" edge="1">
          <mxGeometry width="50" height="50" relative="1" as="geometry">
            <mxPoint x="90" y="119" as="sourcePoint" />
            <mxPoint x="55" y="119" as="targetPoint" />
          </mxGeometry>
        </mxCell>
        <mxCell id="We_G-KZyb0YQPLkmT-2E-70" value="" style="endArrow=none;html=1;rounded=0;labelBackgroundColor=default;fontFamily=Verdana;fontColor=default;" parent="3nuBFxr9cyL0pnOWT2aG-5" edge="1">
          <mxGeometry width="50" height="50" relative="1" as="geometry">
            <mxPoint x="55" y="220" as="sourcePoint" />
            <mxPoint x="90" y="220" as="targetPoint" />
          </mxGeometry>
        </mxCell>
        <mxCell id="We_G-KZyb0YQPLkmT-2E-71" value="" style="endArrow=none;html=1;rounded=0;labelBackgroundColor=default;fontFamily=Verdana;fontColor=default;" parent="3nuBFxr9cyL0pnOWT2aG-5" edge="1">
          <mxGeometry width="50" height="50" relative="1" as="geometry">
            <mxPoint x="90" y="240" as="sourcePoint" />
            <mxPoint x="90" y="220" as="targetPoint" />
          </mxGeometry>
        </mxCell>
        <mxCell id="We_G-KZyb0YQPLkmT-2E-72" value="" style="endArrow=classic;html=1;rounded=0;labelBackgroundColor=default;fontFamily=Verdana;fontColor=default;" parent="3nuBFxr9cyL0pnOWT2aG-5" edge="1">
          <mxGeometry width="50" height="50" relative="1" as="geometry">
            <mxPoint x="90" y="240" as="sourcePoint" />
            <mxPoint x="55" y="240" as="targetPoint" />
          </mxGeometry>
        </mxCell>
        <mxCell id="We_G-KZyb0YQPLkmT-2E-84" value="" style="html=1;verticalAlign=bottom;endArrow=open;dashed=1;endSize=8;rounded=0;labelBackgroundColor=none;fontFamily=Verdana;fontSize=12;fontColor=#000000;" parent="3nuBFxr9cyL0pnOWT2aG-5" edge="1">
          <mxGeometry relative="1" as="geometry">
            <mxPoint x="55" y="270" as="sourcePoint" />
            <mxPoint x="55" y="290" as="targetPoint" />
            <Array as="points">
              <mxPoint x="90" y="270" />
              <mxPoint x="90" y="290" />
            </Array>
          </mxGeometry>
        </mxCell>
        <mxCell id="3nuBFxr9cyL0pnOWT2aG-7" value="return" style="verticalAlign=bottom;endArrow=open;dashed=1;endSize=8;shadow=0;strokeWidth=1;" parent="1" target="3nuBFxr9cyL0pnOWT2aG-2" edge="1">
          <mxGeometry relative="1" as="geometry">
            <mxPoint x="275" y="236" as="targetPoint" />
            <mxPoint x="390" y="310" as="sourcePoint" />
          </mxGeometry>
        </mxCell>
        <mxCell id="3nuBFxr9cyL0pnOWT2aG-9" value="callback" style="verticalAlign=bottom;endArrow=block;entryX=1;entryY=0;shadow=0;strokeWidth=1;" parent="1" source="3nuBFxr9cyL0pnOWT2aG-6" target="3nuBFxr9cyL0pnOWT2aG-4" edge="1">
          <mxGeometry relative="1" as="geometry">
            <mxPoint x="240" y="200" as="sourcePoint" />
          </mxGeometry>
        </mxCell>
        <mxCell id="3nuBFxr9cyL0pnOWT2aG-10" value="return" style="verticalAlign=bottom;endArrow=open;dashed=1;endSize=8;exitX=1;exitY=0.95;shadow=0;strokeWidth=1;" parent="1" source="3nuBFxr9cyL0pnOWT2aG-4" target="3nuBFxr9cyL0pnOWT2aG-6" edge="1">
          <mxGeometry relative="1" as="geometry">
            <mxPoint x="240" y="257" as="targetPoint" />
          </mxGeometry>
        </mxCell>
        <mxCell id="We_G-KZyb0YQPLkmT-2E-6" value="FordEVSDK" style="shape=umlLifeline;perimeter=lifelinePerimeter;container=1;collapsible=0;recursiveResize=0;rounded=0;shadow=0;strokeWidth=1;" parent="1" vertex="1">
          <mxGeometry x="740" y="80" width="100" height="400" as="geometry" />
        </mxCell>
        <mxCell id="We_G-KZyb0YQPLkmT-2E-7" value="" style="points=[];perimeter=orthogonalPerimeter;rounded=0;shadow=0;strokeWidth=1;" parent="We_G-KZyb0YQPLkmT-2E-6" vertex="1">
          <mxGeometry x="45" y="80" width="10" height="160" as="geometry" />
        </mxCell>
        <mxCell id="We_G-KZyb0YQPLkmT-2E-46" value="&lt;span style=&quot;font-size: 11px ; background-color: rgb(255 , 255 , 255) ; line-height: 1.2&quot;&gt;&lt;font face=&quot;Helvetica&quot; style=&quot;line-height: 1&quot;&gt;sendDepartComfortRq(List sendList)&lt;/font&gt;&lt;/span&gt;" style="text;html=1;strokeColor=none;fillColor=none;align=center;verticalAlign=middle;whiteSpace=wrap;rounded=0;labelBackgroundColor=none;fontFamily=Verdana;fontColor=default;" parent="1" vertex="1">
          <mxGeometry x="90" y="140" width="260" height="25" as="geometry" />
        </mxCell>
        <mxCell id="We_G-KZyb0YQPLkmT-2E-49" value="" style="endArrow=classic;html=1;rounded=0;labelBackgroundColor=none;fontFamily=Helvetica;fontColor=default;" parent="1" source="3nuBFxr9cyL0pnOWT2aG-6" edge="1">
          <mxGeometry width="50" height="50" relative="1" as="geometry">
            <mxPoint x="411" y="251.03999999999996" as="sourcePoint" />
            <mxPoint x="785" y="250" as="targetPoint" />
            <Array as="points">
              <mxPoint x="575" y="250" />
            </Array>
          </mxGeometry>
        </mxCell>
        <mxCell id="We_G-KZyb0YQPLkmT-2E-53" value="&lt;span style=&quot;font-family: &amp;quot;helvetica&amp;quot; ; font-size: 11px&quot;&gt;Add DepartComfortsRqStrategy(sendList) (add three times, Ids 1,2,3)&lt;br&gt;&lt;/span&gt;&lt;span style=&quot;font-family: &amp;quot;helvetica&amp;quot; ; font-size: 11px&quot;&gt;and ClearDepartComfortStrategy to&amp;nbsp;&lt;/span&gt;&lt;span style=&quot;font-family: &amp;quot;helvetica&amp;quot; ; font-size: 11px&quot;&gt;List&lt;/span&gt;" style="text;html=1;strokeColor=none;fillColor=none;align=center;verticalAlign=middle;whiteSpace=wrap;rounded=0;labelBackgroundColor=none;fontFamily=Verdana;fontColor=default;" parent="1" vertex="1">
          <mxGeometry x="410" y="150" width="380" height="30" as="geometry" />
        </mxCell>
        <mxCell id="We_G-KZyb0YQPLkmT-2E-56" value="" style="endArrow=classic;html=1;rounded=0;labelBackgroundColor=none;fontFamily=Helvetica;fontColor=default;entryX=0;entryY=0.059;entryDx=0;entryDy=0;entryPerimeter=0;exitX=1.2;exitY=0.097;exitDx=0;exitDy=0;exitPerimeter=0;" parent="1" edge="1">
          <mxGeometry width="50" height="50" relative="1" as="geometry">
            <mxPoint x="55" y="168.42999999999995" as="sourcePoint" />
            <mxPoint x="393" y="169.44000000000005" as="targetPoint" />
          </mxGeometry>
        </mxCell>
        <mxCell id="We_G-KZyb0YQPLkmT-2E-61" value="&lt;span style=&quot;font-size: 11px ; background-color: rgb(255 , 255 , 255) ; line-height: 1.2&quot;&gt;&lt;font face=&quot;Helvetica&quot; style=&quot;line-height: 1&quot;&gt;saveDepartAndComforts(DepartComfortsRqStrategy(id=1)) chrgGoTUpdateRq=true&lt;/font&gt;&lt;/span&gt;" style="text;html=1;strokeColor=none;fillColor=none;align=center;verticalAlign=middle;whiteSpace=wrap;rounded=0;labelBackgroundColor=none;fontFamily=Verdana;fontColor=default;" parent="1" vertex="1">
          <mxGeometry x="410" y="217.5" width="350" height="25" as="geometry" />
        </mxCell>
        <mxCell id="We_G-KZyb0YQPLkmT-2E-74" value="&lt;span style=&quot;font-size: 11px ; background-color: rgb(255 , 255 , 255) ; line-height: 1.2&quot;&gt;&lt;font face=&quot;Helvetica&quot; style=&quot;line-height: 1&quot;&gt;delay 1200ms&lt;/font&gt;&lt;/span&gt;" style="text;html=1;strokeColor=none;fillColor=none;align=center;verticalAlign=middle;whiteSpace=wrap;rounded=0;labelBackgroundColor=none;fontFamily=Verdana;fontColor=default;" parent="1" vertex="1">
          <mxGeometry x="410" y="269.38" width="80" height="21.25" as="geometry" />
        </mxCell>
        <object label="" custom="guaiwuai" placeholders="1" id="-BcTEHxaipuHjrKjKRAh-2">
          <mxCell style="endArrow=classic;html=1;rounded=0;" edge="1" parent="1">
            <mxGeometry width="50" height="50" relative="1" as="geometry">
              <mxPoint x="470" y="370" as="sourcePoint" />
              <mxPoint x="470" y="390" as="targetPoint" />
              <Array as="points">
                <mxPoint x="510" y="370" />
                <mxPoint x="510" y="390" />
              </Array>
            </mxGeometry>
          </mxCell>
        </object>
      </root>
    </mxGraphModel>
  </diagram>
</mxfile>
